<?xml version="1.0" standalone="no"?>
<!DOCTYPE svg PUBLIC "-//W3C//DTD SVG 20010904//EN"
 "http://www.w3.org/TR/2001/REC-SVG-20010904/DTD/svg10.dtd">
<svg version="1.0" xmlns="http://www.w3.org/2000/svg"
 width="120.000000pt" height="120.000000pt" viewBox="0 0 120.000000 120.000000"
 preserveAspectRatio="xMidYMid meet">
<metadata>
Created by potrace 1.10, written by Peter Selinger 2001-2011
</metadata>
<g transform="translate(0.000000,120.000000) scale(0.100000,-0.100000)"
fill="#000000" stroke="none">
<path d="M520 1124 c-232 -46 -397 -196 -446 -404 -8 -34 -12 -66 -9 -70 7
-11 33 -2 64 22 22 16 26 17 41 3 23 -21 50 -19 50 3 0 24 63 129 103 170 18
19 59 50 92 70 59 36 62 36 170 36 l110 1 97 -61 c94 -60 118 -66 118 -28 0
20 22 28 34 13 6 -8 30 -26 54 -42 38 -25 56 -57 32 -57 -5 0 -10 5 -10 10 0
15 -40 12 -41 -2 -3 -28 4 -54 17 -69 21 -24 18 -89 -7 -115 -14 -15 -18 -29
-13 -48 8 -32 17 -33 37 -4 l16 23 21 -25 c26 -32 22 -47 -17 -77 l-32 -25
-12 26 c-16 35 -28 30 -64 -29 -46 -76 -127 -150 -200 -184 -57 -27 -76 -31
-148 -31 -56 1 -88 5 -101 15 -11 8 -27 15 -35 15 -31 0 -131 91 -178 160 -41
63 -73 88 -73 60 0 -21 -30 -21 -56 -1 -27 21 -59 28 -67 14 -11 -20 51 -166
94 -221 114 -145 254 -215 429 -214 152 0 263 46 371 152 77 77 116 138 140
227 21 75 16 145 -13 182 -21 28 -23 57 -3 91 21 37 19 87 -3 93 -11 2 -21 17
-25 34 -12 62 -134 185 -230 235 -78 39 -235 66 -307 52z"/>
<path d="M858 798 c-3 -11 -2 -211 1 -241 1 -4 22 -7 49 -5 l47 3 3 60 c5 93
-4 123 -36 127 -24 3 -27 7 -24 36 3 26 0 32 -16 32 -11 0 -22 -6 -24 -12z
m60 -150 c-2 -35 -7 -63 -13 -63 -5 0 -11 28 -13 63 -2 51 0 62 13 62 13 0 15
-11 13 -62z"/>
<path d="M500 761 c0 -21 7 -58 15 -81 8 -23 15 -62 15 -86 0 -48 10 -60 39
-44 15 7 21 23 23 58 4 61 22 61 26 0 3 -53 23 -78 47 -58 11 9 15 33 15 84 1
46 6 78 15 90 18 24 20 62 3 72 -16 10 -48 -33 -48 -67 0 -15 -4 -31 -10 -34
-6 -4 -10 6 -10 22 0 42 -11 73 -25 73 -14 0 -25 -30 -25 -68 0 -13 -4 -20
-10 -17 -5 3 -10 16 -10 28 0 28 -26 67 -46 67 -10 0 -14 -12 -14 -39z"/>
<path d="M758 743 c-10 -3 -18 -10 -18 -18 0 -7 -7 -18 -16 -26 -23 -19 -11
-115 18 -146 27 -29 39 -29 66 0 25 26 20 37 -14 37 -46 0 -37 42 13 61 52 19
6 104 -49 92z"/>
<path d="M54 605 c-14 -21 -15 -30 -5 -52 11 -24 14 -25 59 -17 26 4 120 8
210 9 163 1 191 7 179 38 -4 11 -45 15 -195 20 -107 3 -199 10 -211 16 -17 10
-23 7 -37 -14z"/>
</g>
</svg>
