<?xml version="1.0" standalone="no"?>
<!DOCTYPE svg PUBLIC "-//W3C//DTD SVG 20010904//EN"
 "http://www.w3.org/TR/2001/REC-SVG-20010904/DTD/svg10.dtd">
<svg version="1.0" xmlns="http://www.w3.org/2000/svg"
 width="200.000000pt" height="200.000000pt" viewBox="0 0 200.000000 200.000000"
 preserveAspectRatio="xMidYMid meet">
<metadata>
Created by potrace 1.10, written by Peter Selinger 2001-2011
</metadata>
<g transform="translate(0.000000,200.000000) scale(0.050000,-0.050000)"
fill="#000000" stroke="none">
<path d="M1721 3779 c-825 -147 -1424 -787 -1512 -1614 -28 -269 126 -57 243
335 31 105 63 195 71 200 8 6 17 24 20 40 4 16 18 39 31 50 13 11 27 32 30 47
13 61 299 360 451 473 44 33 75 68 70 78 -6 10 -1 12 11 4 12 -7 39 3 59 22
20 20 54 39 76 43 21 4 45 16 51 27 7 11 16 17 20 14 5 -2 53 10 108 29 292
97 590 115 882 55 162 -33 223 -56 328 -121 17 -10 54 -24 82 -30 133 -27 370
-230 622 -531 59 -71 148 -152 197 -180 74 -42 82 -51 46 -56 -34 -5 -49 -28
-68 -110 -39 -167 -50 -170 -89 -26 -35 129 -37 132 -102 132 l-66 0 50 -132
c27 -73 62 -163 77 -199 26 -63 23 -79 -49 -268 l-76 -201 68 0 c37 0 68 10
68 22 0 12 15 72 32 133 36 124 48 117 87 -50 24 -101 28 -105 91 -105 l66 0
-76 199 -76 199 62 161 c69 182 82 187 77 32 -2 -60 10 -206 28 -323 l32 -214
-65 -132 c-35 -73 -72 -137 -81 -143 -9 -6 -20 -41 -24 -77 -5 -36 -18 -75
-29 -86 -11 -11 -16 -33 -10 -48 6 -16 1 -28 -10 -28 -12 0 -31 -31 -44 -69
-99 -301 -521 -698 -874 -822 -75 -27 -122 -48 -106 -49 27 -1 27 -3 0 -20
-39 -25 -66 -25 -50 0 18 28 -113 0 -152 -33 -17 -15 -48 -26 -70 -25 -29 2
-26 5 12 17 28 8 -41 10 -152 5 -177 -8 -395 13 -516 49 -22 7 -32 3 -24 -9 7
-12 -4 -16 -30 -9 -27 7 -33 16 -18 25 13 8 -13 24 -64 36 -97 25 -278 117
-416 211 -49 34 -93 59 -96 56 -4 -3 -31 25 -60 62 -30 38 -71 85 -93 106 -21
22 -82 107 -134 189 -53 83 -106 161 -117 174 -11 13 -20 35 -20 49 0 72 -119
332 -188 411 -111 127 -114 126 668 125 l690 -1 6 71 6 71 -743 0 -743 0 14
-165 c127 -1454 1836 -2167 2949 -1230 541 456 785 1282 557 1890 -21 57 -33
114 -26 125 7 11 4 20 -6 20 -10 0 -34 40 -53 90 -258 676 -1161 1162 -1910
1029z"/>
<path d="M1770 3387 c-22 -5 -53 -15 -70 -21 -16 -7 -38 -11 -47 -8 -10 2 -30
-7 -45 -20 -16 -13 -49 -26 -73 -28 -25 -3 -57 -6 -71 -7 -15 -2 -20 -13 -12
-26 9 -15 5 -18 -10 -9 -106 66 -658 -473 -705 -688 -4 -16 -14 -35 -23 -42
-9 -6 -17 -33 -19 -60 -1 -26 -10 -58 -19 -70 -38 -51 -32 -189 12 -252 66
-98 81 -88 117 89 191 929 1298 1286 1994 642 132 -122 181 -151 181 -106 0
12 10 15 23 7 115 -71 -84 248 -209 335 -35 25 -68 51 -74 58 -23 30 -102 60
-124 47 -13 -8 -17 -5 -9 7 15 25 -42 51 -72 32 -12 -7 -16 -5 -9 6 6 11 -15
29 -47 41 -33 13 -54 14 -48 5 6 -10 -3 -13 -20 -7 -17 7 -31 21 -31 32 0 12
-22 16 -49 11 -28 -5 -46 -3 -41 5 20 33 -378 53 -500 27z"/>
<path d="M2880 2280 c0 -402 2 -420 39 -420 21 0 44 9 52 21 9 14 21 14 39 -1
48 -40 156 -16 184 40 34 67 34 453 0 520 -27 54 -123 79 -160 42 -46 -46 -58
-19 -44 98 l14 120 -62 0 -62 0 0 -420z m210 -100 c0 -217 -2 -230 -40 -230
-45 0 -82 391 -42 446 58 80 82 16 82 -216z"/>
<path d="M1726 2595 c6 -36 32 -216 57 -400 l47 -335 65 0 c36 0 65 4 65 10 0
26 84 521 89 526 6 5 17 -68 69 -436 11 -83 17 -90 76 -96 74 -7 61 -48 127
426 23 165 46 316 52 336 9 31 0 36 -56 30 l-67 -6 -24 -287 c-21 -262 -46
-395 -46 -251 0 32 -14 139 -30 238 -17 99 -35 209 -41 245 -9 53 -108 107
-109 60 0 -3 -18 -108 -40 -235 -22 -126 -40 -260 -40 -296 0 -39 -8 -61 -20
-54 -11 7 -20 52 -20 100 0 49 -10 179 -23 289 l-23 201 -59 0 c-56 0 -59 -4
-49 -65z"/>
<path d="M2497 2462 c-71 -57 -83 -463 -17 -547 87 -111 276 -60 286 78 6 85
-68 91 -100 8 -42 -112 -99 -80 -119 67 l-12 92 112 0 c128 0 148 28 127 183
-20 150 -163 211 -277 119z m165 -127 c14 -88 9 -95 -65 -95 -63 0 -73 35 -37
130 30 78 86 58 102 -35z"/>
<path d="M3170 1795 c-126 -361 -190 -472 -373 -645 -644 -609 -1704 -321
-1969 535 -40 130 -44 133 -98 70 -59 -70 -31 -335 36 -335 11 0 15 -5 8 -12
-13 -14 61 -139 153 -256 76 -97 350 -317 375 -301 10 6 24 -2 30 -20 7 -17
20 -26 30 -20 10 6 18 3 18 -7 0 -71 366 -183 600 -183 237 0 640 129 640 205
0 9 8 11 18 5 50 -31 403 304 494 469 21 39 46 76 56 83 10 7 12 28 5 46 -7
18 -4 28 5 22 22 -13 82 155 82 228 0 90 -87 181 -110 116z"/>
</g>
</svg>
